<svg width="16" height="18" viewBox="0 0 16 18" fill="none" xmlns="http://www.w3.org/2000/svg">
<path fill-rule="evenodd" clip-rule="evenodd" d="M7.68133 14.1962L2.70555 16.901C2.30828 17.1058 1.81884 16.9608 1.59982 16.5733C1.53646 16.4533 1.50227 16.3202 1.5 16.1848V4.2C1.5 1.91429 3.07413 1 5.33934 1H10.6607C12.8568 1 14.5 1.85333 14.5 4.04762V16.1848C14.5 16.401 14.4134 16.6083 14.2594 16.7612C14.1053 16.9141 13.8963 17 13.6784 17C13.5394 16.9978 13.4028 16.9639 13.2791 16.901L8.27259 14.1962C8.08811 14.0973 7.86582 14.0973 7.68133 14.1962Z" fill="#6462F1" stroke="white" stroke-width="1.5" stroke-linecap="round" stroke-linejoin="round"/>
<path d="M4.97656 6.76908H11.0559" stroke="white" stroke-width="1.5" stroke-linecap="round" stroke-linejoin="round"/>
</svg>
