<svg width="current" height="current" viewBox="0 0 18 20" fill="none" xmlns="http://www.w3.org/2000/svg">
<path fill-rule="evenodd" clip-rule="evenodd" d="M2.24275 4.06036C2.47999 3.6239 3.78712 2.03639 4.71991 2.08431C4.99875 2.10999 5.24523 2.29741 5.4455 2.51478C5.90535 3.01372 7.22172 4.90076 7.29644 5.29786C7.47822 6.27176 6.43375 6.83317 6.7534 7.81478C7.56834 10.0305 8.97253 11.5906 10.9675 12.4952C11.8502 12.8503 12.3555 11.6899 13.2321 11.8927C13.5887 11.9757 15.2879 13.4383 15.737 13.9492C15.9319 14.1708 16.1013 14.4455 16.1244 14.7553C16.1591 15.8465 14.6417 17.3193 14.3459 17.5076C13.648 18.0622 12.7376 18.0528 11.6276 17.4794C8.5304 16.0476 3.58069 10.6518 2.26817 7.0805C1.76596 5.85413 1.73129 4.83572 2.24275 4.06036Z" stroke="current" stroke-width="1.5" stroke-linecap="round" stroke-linejoin="round"/>
</svg>
