<svg width="19" height="15" viewBox="0 0 19 15" fill="none" xmlns="http://www.w3.org/2000/svg">
<path d="M12.959 6.71014L16.339 3.92014C16.4632 3.80838 16.6179 3.7362 16.7834 3.71284C16.9489 3.68948 17.1175 3.716 17.2678 3.789C17.4181 3.86201 17.5432 3.97819 17.6272 4.12268C17.7111 4.26717 17.75 4.43341 17.739 4.60014V10.3201C17.7387 10.4788 17.6934 10.6341 17.6085 10.7681C17.5236 10.9021 17.4024 11.0094 17.2591 11.0774C17.1157 11.1454 16.956 11.1714 16.7985 11.1524C16.641 11.1334 16.4921 11.0702 16.369 10.9701L12.959 8.18014" stroke="white" stroke-width="1.5" stroke-linecap="round" stroke-linejoin="round"/>
<path d="M13.86 1L1 13.86" stroke="white" stroke-width="1.5" stroke-linecap="round" stroke-linejoin="round"/>
<path d="M12.9595 6.70996V10.33C12.9762 10.716 12.9108 11.1012 12.7676 11.46C12.6244 11.8189 12.4066 12.1433 12.1287 12.4118C11.8508 12.6802 11.5191 12.8866 11.1555 13.0173C10.7919 13.148 10.4047 13.2 10.0195 13.17H5.93945" stroke="white" stroke-width="1.5" stroke-linecap="round" stroke-linejoin="round"/>
<path d="M2.58908 12.2698C2.12536 11.7317 1.87928 11.0398 1.89908 10.3298V4.52975C1.88219 4.14282 1.94782 3.75671 2.09161 3.39709C2.23541 3.03747 2.45408 2.71256 2.7331 2.44394C3.01212 2.17533 3.3451 1.96916 3.70992 1.83912C4.07475 1.70909 4.46306 1.65817 4.84908 1.68975H10.0191C10.4361 1.67505 10.8516 1.74749 11.239 1.90246C11.6264 2.05743 11.9773 2.29151 12.2691 2.58976" stroke="white" stroke-width="1.5" stroke-linecap="round" stroke-linejoin="round"/>
</svg>
