<svg width="current" height="current" viewBox="0 0 24 24" fill="none" xmlns="http://www.w3.org/2000/svg">
<path d="M21 21V21C21 19.3431 19.6569 18 18 18H15C13.3431 18 12 19.3431 12 21V21" stroke="current" stroke-width="1.5" stroke-linecap="round" stroke-linejoin="round"/>
<path d="M3 21V21C3 19.3431 4.34315 18 6 18H9C10.6569 18 12 19.3431 12 21V21" stroke="current" stroke-width="1.5" stroke-linecap="round" stroke-linejoin="round"/>
<path d="M21 11V11C21 9.34315 19.6569 8 18 8H15C13.3431 8 12 9.34315 12 11V11" stroke="current" stroke-width="1.5" stroke-linecap="round" stroke-linejoin="round"/>
<path d="M3 11V11C3 9.34315 4.34315 8 6 8H9C10.6569 8 12 9.34315 12 11V11" stroke="current" stroke-width="1.5" stroke-linecap="round" stroke-linejoin="round"/>
<rect x="14" y="12" width="5" height="5" rx="2.5" stroke="current" stroke-width="1.5" stroke-linecap="round" stroke-linejoin="round"/>
<rect x="14" y="2" width="5" height="5" rx="2.5" stroke="current" stroke-width="1.5" stroke-linecap="round" stroke-linejoin="round"/>
<rect x="5" y="12" width="5" height="5" rx="2.5" stroke="current" stroke-width="1.5" stroke-linecap="round" stroke-linejoin="round"/>
<rect x="5" y="2" width="5" height="5" rx="2.5" stroke="current" stroke-width="1.5" stroke-linecap="round" stroke-linejoin="round"/>
<path d="M12 21V21C12 19.3431 10.6569 18 9 18H6C4.34315 18 3 19.3431 3 21V21" stroke="current" stroke-width="1.5" stroke-linecap="round" stroke-linejoin="round"/>
<path d="M12 21V21C12 19.3431 13.3431 18 15 18H18C19.6569 18 21 19.3431 21 21V21" stroke="current" stroke-width="1.5" stroke-linecap="round" stroke-linejoin="round"/>
<path d="M12 11V11C12 9.34315 10.6569 8 9 8H6C4.34315 8 3 9.34315 3 11V11" stroke="current" stroke-width="1.5" stroke-linecap="round" stroke-linejoin="round"/>
<path d="M12 11V11C12 9.34315 13.3431 8 15 8H18C19.6569 8 21 9.34315 21 11V11" stroke="current" stroke-width="1.5" stroke-linecap="round" stroke-linejoin="round"/>
</svg>
