<svg width="current" height="current" viewBox="0 0 18 18" fill="none" xmlns="http://www.w3.org/2000/svg">
<path fill-rule="evenodd" clip-rule="evenodd" d="M5.77145 10.0432C5.28788 10.0432 4.89502 9.65032 4.89502 9.16675C4.89502 8.68461 5.28788 8.29175 5.77145 8.29175C6.25502 8.29175 6.64788 8.68461 6.64788 9.16675C6.64788 9.65032 6.25502 10.0432 5.77145 10.0432ZM9.17859 10.0432C8.69502 10.0432 8.30216 9.65032 8.30216 9.16675C8.30216 8.68461 8.69502 8.29175 9.17859 8.29175C9.66216 8.29175 10.055 8.68461 10.055 9.16675C10.055 9.65032 9.66216 10.0432 9.17859 10.0432ZM11.7094 9.16675C11.7094 9.65032 12.1022 10.0432 12.5858 10.0432C13.0694 10.0432 13.4622 9.65032 13.4622 9.16675C13.4622 8.68461 13.0694 8.29175 12.5858 8.29175C12.1022 8.29175 11.7094 8.68461 11.7094 9.16675Z" fill="currentColor"/>
<path fill-rule="evenodd" clip-rule="evenodd" d="M9.015 1.5C4.6575 1.5 1.5 5.05959 1.5 9.01127C1.5 10.2732 1.8675 11.5719 2.5125 12.7586C2.6325 12.9547 2.6475 13.2018 2.565 13.4354L2.0625 15.1179C1.95 15.5235 2.295 15.8232 2.6775 15.7031L4.1925 15.2531C4.605 15.1179 4.9275 15.2899 5.31 15.5235C6.405 16.1688 7.77 16.5 9 16.5C12.72 16.5 16.5 13.6232 16.5 8.98873C16.5 4.99199 13.275 1.5 9.015 1.5Z" stroke="current" stroke-width="1.5" stroke-linecap="round" stroke-linejoin="round"/>
</svg>
