<svg width="22" height="21" viewBox="0 0 22 21" fill="none" xmlns="http://www.w3.org/2000/svg">
<path d="M16.9997 1.33301L9.66632 1.99967L7.79965 2.93301L4.99965 1.99967H1.66632V13.333H5.66632L7.30268 12.2421L10.333 14.6663L12.333 17.333L12.9997 19.333H14.333L15.6663 17.333L14.333 12.6663H19.6663L20.9997 11.333L20.333 9.33301V7.33301L19.6663 6.66634L18.333 3.33301V1.99967L16.9997 1.33301Z" fill="white"/>
<path d="M1.66632 13.4668H4.86632C6.04453 13.4668 6.99965 12.5117 6.99965 11.3335V3.8668C6.99965 2.68859 6.04453 1.73346 4.86632 1.73346H1.66632V13.4668Z" stroke="#121212" stroke-width="1.5" stroke-linecap="round" stroke-linejoin="round"/>
<path d="M4.76982 3.88087C4.76982 3.49926 4.46052 3.18996 4.07891 3.18996C3.6973 3.18996 3.388 3.49926 3.388 3.88087C3.388 4.26248 3.6973 4.57178 4.07891 4.57178C4.46052 4.57178 4.76982 4.26248 4.76982 3.88087Z" fill="#121212"/>
<path d="M6.99963 12.3999L9.56205 14.0014C10.6605 14.688 11.4716 15.7508 11.8438 16.9915L12.3531 18.6894C12.5851 19.4625 13.5584 19.7078 14.1291 19.1371L14.5123 18.754C15.4485 17.8177 15.7115 16.4015 15.1737 15.1916L13.933 12.3999" stroke="#121212" stroke-width="1.5" stroke-linecap="round" stroke-linejoin="round"/>
<path d="M12.333 12.3999H19.533C20.2694 12.3999 20.8663 11.8029 20.8663 11.0666V11.0666C20.8663 10.3302 20.2694 9.73324 19.533 9.73324H17.133" stroke="#121212" stroke-width="1.5" stroke-linecap="round" stroke-linejoin="round"/>
<path d="M17.1324 9.7334H19.5324C20.2688 9.7334 20.8658 9.13644 20.8658 8.40007V8.40007C20.8658 7.66369 20.2688 7.06673 19.5324 7.06673H17.6658" stroke="#121212" stroke-width="1.5" stroke-linecap="round" stroke-linejoin="round"/>
<path d="M17.1324 7.06641H18.4658C19.2022 7.06641 19.7991 6.46945 19.7991 5.73307V5.73307C19.7991 4.99669 19.2022 4.39974 18.4658 4.39974H17.6658" stroke="#121212" stroke-width="1.5" stroke-linecap="round" stroke-linejoin="round"/>
<path d="M16.5996 4.3999H17.3996C18.136 4.3999 18.733 3.80295 18.733 3.06657V3.06657C18.733 2.33019 18.136 1.73324 17.3996 1.73324H11.9281C11.1352 1.73324 10.3462 1.84374 9.58382 2.06156L6.99963 2.7999" stroke="#121212" stroke-width="1.5" stroke-linecap="round" stroke-linejoin="round"/>
</svg>
