<svg width="20" height="20" viewBox="0 0 20 20" fill="none" xmlns="http://www.w3.org/2000/svg">
<path d="M4 3L4 18" stroke="white" stroke-width="1.25" stroke-linecap="round" stroke-linejoin="round"/>
<path d="M16 12.6721V4.89376C16 4.06628 14.9972 3.49565 14.1923 3.68759C13.0754 3.95394 11.5609 3.96437 10 2.91955C7.63968 1.3396 5.38538 2.17265 4.45157 2.65474C4.15864 2.80596 4 3.11534 4 3.445V13.2645C4 13.2645 6.90909 11.6095 10 13.2645C12.2912 14.4913 14.4826 13.8992 15.4631 13.5108C15.8035 13.3759 16 13.0383 16 12.6721Z" fill="#6462F1" stroke="white" stroke-width="1.25" stroke-linecap="round" stroke-linejoin="round"/>
<path d="M13 8.97398C12.1251 9.07774 11.0751 8.89442 10 8C8.92489 7.10558 7.87493 6.92226 7 7.02602" stroke="white" stroke-width="1.25" stroke-linecap="round" stroke-linejoin="round"/>
</svg>
