<svg width="current" height="current" viewBox="0 0 18 18" fill="none" xmlns="http://www.w3.org/2000/svg">
<path d="M15.9953 8.57766H9.19085V10.4422H13.7788C13.2388 12.7157 11.5623 14.104 9.31764 14.104C8.44752 14.1053 7.59023 13.9032 6.82039 13.5152C6.05055 13.1272 5.39149 12.5651 4.90055 11.8778C4.40962 11.1904 4.1017 10.3987 4.00359 9.57153C3.90547 8.74433 4.02014 7.90673 4.33762 7.13162C4.65509 6.35651 5.16575 5.66738 5.82514 5.12421C6.48454 4.58103 7.2727 4.20027 8.12101 4.01506C8.96933 3.82986 9.8521 3.84581 10.6925 4.06155C11.5329 4.27729 12.3054 4.68626 12.9429 5.25289L14.4503 4.01283C13.5948 3.20658 12.5449 2.61422 11.3934 2.28803C10.242 1.96183 9.02428 1.91184 7.84784 2.14245C6.67139 2.37306 5.57236 2.87719 4.64774 3.61035C3.72312 4.34351 3.00134 5.28315 2.5461 6.34635C2.09085 7.40956 1.91614 8.56363 2.03739 9.70672C2.15863 10.8498 2.57209 11.9468 3.24129 12.9008C3.9105 13.8548 4.81486 14.6366 5.87457 15.1771C6.93428 15.7176 8.11676 16.0002 9.31764 16C13.1965 16 16 13.1694 16 9.30103L15.9953 8.57766Z" fill="currentColor"/>
</svg>
