<svg width="24" height="24" viewBox="0 0 24 24" fill="none" xmlns="http://www.w3.org/2000/svg">
<g clip-path="url(#clip0_3223_53561)">
<path d="M2.18188 8.30176H5.45461C6.03327 8.30176 6.58832 8.53153 6.99749 8.9407C7.40666 9.34987 7.63643 9.90492 7.63643 10.4836V18.1199C7.63643 18.6986 7.40666 19.2534 6.99749 19.6626C6.58832 20.0717 6.03327 20.3018 5.45461 20.3018H2.18188V8.30176Z" fill="white"/>
<path d="M7.63684 19.2107L10.2768 19.9743C11.0583 20.1915 11.8656 20.3016 12.6767 20.3017H18.2732C18.6349 20.3017 18.9816 20.1579 19.2373 19.9021C19.4931 19.6464 19.6368 19.2997 19.6368 18.938C19.6368 18.5764 19.4931 18.2293 19.2373 17.9736C18.9816 17.7179 18.6349 17.5744 18.2732 17.5744H19.3641C19.7258 17.5744 20.0725 17.4306 20.3282 17.1749C20.584 16.9191 20.7278 16.5724 20.7278 16.2107C20.7277 15.8491 20.584 15.5021 20.3282 15.2463C20.0725 14.9906 19.7258 14.8471 19.3641 14.8471H20.455C20.8167 14.8471 21.1634 14.7033 21.4192 14.4476C21.6749 14.1919 21.8187 13.8451 21.8187 13.4835C21.8187 13.1218 21.6749 12.7748 21.4192 12.5191C21.1634 12.2633 20.8167 12.1198 20.455 12.1198C20.8167 12.1198 21.1634 11.9761 21.4192 11.7203C21.6749 11.4646 21.8187 11.1179 21.8187 10.7562C21.8187 10.3945 21.6749 10.0475 21.4192 9.7918C21.1634 9.53607 20.8167 9.39256 20.455 9.39256H14.7278L15.9931 6.54517C16.2619 5.94064 16.341 5.26896 16.2203 4.6185C16.0995 3.96804 15.7847 3.36951 15.3169 2.9017L14.935 2.50886C14.8016 2.37403 14.6353 2.27621 14.4526 2.22521C14.27 2.17422 14.0772 2.17177 13.8933 2.21802C13.7094 2.26428 13.5406 2.35781 13.4038 2.48915C13.267 2.62049 13.1669 2.78507 13.1132 2.96696L12.5896 4.7016C12.2079 5.96937 11.378 7.05509 10.2549 7.7562L7.63684 9.39256" fill="white"/>
</g>
<path d="M2.18176 8.72705H5.45449C6.65947 8.72705 7.63631 9.70388 7.63631 10.9089V18.5452C7.63631 19.7502 6.65947 20.7271 5.45449 20.7271H2.18176V8.72705Z" stroke="#121212" stroke-width="1.5" stroke-linecap="round" stroke-linejoin="round"/>
<path d="M5.23631 18.1186C5.23631 18.5003 4.92701 18.8096 4.5454 18.8096C4.16379 18.8096 3.85449 18.5003 3.85449 18.1186C3.85449 17.737 4.16379 17.4277 4.5454 17.4277C4.92701 17.4277 5.23631 17.737 5.23631 18.1186Z" fill="#121212"/>
<path d="M7.63672 9.81805L10.2574 8.18014C11.3808 7.478 12.2103 6.39098 12.591 5.12205L13.1119 3.38562C13.3491 2.59497 14.3445 2.34401 14.9282 2.9277L15.3201 3.31959C16.2776 4.27713 16.5465 5.72549 15.9966 6.96294L14.7276 9.81805" stroke="#121212" stroke-width="1.5" stroke-linecap="round" stroke-linejoin="round"/>
<path d="M13.0909 9.81836H20.4546C21.2077 9.81836 21.8182 10.4289 21.8182 11.182V11.182C21.8182 11.9351 21.2077 12.5456 20.4546 12.5456H18" stroke="#121212" stroke-width="1.5" stroke-linecap="round" stroke-linejoin="round"/>
<path d="M18 12.5454H20.4545C21.2077 12.5454 21.8182 13.1559 21.8182 13.909V13.909C21.8182 14.6622 21.2077 15.2727 20.4545 15.2727H18.5455" stroke="#121212" stroke-width="1.5" stroke-linecap="round" stroke-linejoin="round"/>
<path d="M18 15.2729H19.3636C20.1168 15.2729 20.7273 15.8835 20.7273 16.6366V16.6366C20.7273 17.3897 20.1168 18.0002 19.3636 18.0002H18.5455" stroke="#121212" stroke-width="1.5" stroke-linecap="round" stroke-linejoin="round"/>
<path d="M17.4549 18H18.2731C19.0262 18 19.6367 18.6105 19.6367 19.3636V19.3636C19.6367 20.1168 19.0262 20.7273 18.2731 20.7273H12.6772C11.8663 20.7273 11.0593 20.6143 10.2796 20.3915L7.63672 19.6364" stroke="#121212" stroke-width="1.5" stroke-linecap="round" stroke-linejoin="round"/>
<defs>
<clipPath id="clip0_3223_53561">
<rect width="19.6364" height="18.12" fill="white" transform="translate(2.18176 3.27295)"/>
</clipPath>
</defs>
</svg>
