<svg width="15" height="18" viewBox="0 0 15 18" fill="none" xmlns="http://www.w3.org/2000/svg">
<path d="M13.86 2.25L1 15.11" stroke="white" stroke-width="1.5" stroke-linecap="round" stroke-linejoin="round"/>
<path d="M7.35938 14.0201C8.99576 14.0201 10.5651 13.37 11.7222 12.2129C12.8793 11.0558 13.5294 9.48648 13.5294 7.8501" stroke="white" stroke-width="1.5" stroke-linecap="round" stroke-linejoin="round"/>
<path d="M1.18945 7.8501C1.19015 8.76036 1.39224 9.65919 1.78124 10.4821C2.17024 11.3051 2.73651 12.0318 3.43945 12.6101" stroke="white" stroke-width="1.5" stroke-linecap="round" stroke-linejoin="round"/>
<path d="M7.35938 16.36V14.02" stroke="white" stroke-width="1.5" stroke-linecap="round" stroke-linejoin="round"/>
<path d="M5.6694 10.44C5.22197 10.1724 4.852 9.79276 4.59598 9.33858C4.33996 8.88441 4.20672 8.37136 4.2094 7.85V4.05C4.20276 3.65185 4.27546 3.25636 4.42325 2.88659C4.57104 2.51682 4.79096 2.18018 5.0702 1.89628C5.34944 1.61239 5.68241 1.38693 6.04968 1.23305C6.41695 1.07917 6.81119 0.999945 7.2094 1H7.4194C7.81761 0.999945 8.21184 1.07917 8.57911 1.23305C8.94639 1.38693 9.27936 1.61239 9.5586 1.89628C9.83784 2.18018 10.0578 2.51682 10.2055 2.88659C10.3533 3.25636 10.426 3.65185 10.4194 4.05V5.34" stroke="white" stroke-width="1.5" stroke-linecap="round" stroke-linejoin="round"/>
</svg>
