<svg width="18" height="18" viewBox="0 0 18 18" fill="none" xmlns="http://www.w3.org/2000/svg">
<path d="M5.91781 12.2872H4.33355C3.5704 12.2872 3.05581 11.7654 2.95179 10.9046C2.80329 9.84526 2.81758 7.93144 2.95179 6.84985C3.05581 6.10338 3.5704 5.51573 4.33355 5.51573H5.91781L8.70278 3.23741C8.94658 3.03015 9.36826 2.83479 9.62476 2.84035C10.1671 2.82368 10.6698 3.21835 10.8628 3.86238C10.9692 4.27294 10.9986 4.75179 11.0526 5.19491C11.1066 5.62612 11.1383 5.58721 11.1471 6.88718" stroke="#121212" stroke-width="1.5" stroke-linecap="round" stroke-linejoin="round"/>
<path d="M11.1445 10.6436C11.1302 11.6457 11.096 12.2556 11.0523 12.6074C10.9983 13.0505 10.9825 13.4881 10.8625 13.9391C10.6696 14.584 10.1669 14.9778 9.62451 14.9612C9.36801 14.9675 9.0051 14.8111 8.76131 14.6046L7.71387 13.7501" stroke="#121212" stroke-width="1.5" stroke-linecap="round" stroke-linejoin="round"/>
<path d="M15.7465 2.4707L2.88574 15.3314" stroke="#121212" stroke-width="1.5" stroke-linecap="round" stroke-linejoin="round"/>
</svg>
