<svg width="16" height="18" viewBox="0 0 16 18" fill="none" xmlns="http://www.w3.org/2000/svg">
<path fill-rule="evenodd" clip-rule="evenodd" d="M1.24275 3.06061C1.47999 2.62415 2.78712 1.03663 3.71991 1.08456C3.99875 1.11023 4.24523 1.29765 4.4455 1.51503C4.90535 2.01396 6.22172 3.90101 6.29644 4.2981C6.47822 5.27201 5.43375 5.83341 5.7534 6.81502C6.56834 9.03069 7.97253 10.5908 9.96751 11.4954C10.8502 11.8506 11.3555 10.6901 12.2321 10.8929C12.5887 10.9759 14.2879 12.4385 14.737 12.9494C14.9319 13.1711 15.1013 13.4458 15.1244 13.7556C15.1591 14.8467 13.6417 16.3196 13.3459 16.5079C12.648 17.0624 11.7376 17.053 10.6276 16.4796C7.5304 15.0478 2.58069 9.65201 1.26817 6.08074C0.765956 4.85437 0.731295 3.83597 1.24275 3.06061Z" stroke="#121212" stroke-linecap="round" stroke-linejoin="round"/>
</svg>
