<svg width="20" height="20" viewBox="0 0 20 20" fill="none" xmlns="http://www.w3.org/2000/svg">
<path fill-rule="evenodd" clip-rule="evenodd" d="M9.99984 2.29175C14.2573 2.29175 17.7082 5.74341 17.7082 10.0001C17.7082 14.2567 14.2573 17.7084 9.99984 17.7084C5.74317 17.7084 2.2915 14.2567 2.2915 10.0001C2.2915 5.74341 5.74317 2.29175 9.99984 2.29175Z" stroke="current" stroke-width="1.5" stroke-linecap="round" stroke-linejoin="round"/>
<path d="M8 8V8C8 6.89543 8.89543 6 10 6H10.1459C11.1699 6 12 6.84749 12 7.87148V7.87148C12 8.55669 11.6129 9.19357 11 9.5L10.8944 9.55279C10.3463 9.82687 10 10.3871 10 11V11" stroke="#121212" stroke-width="1.5" stroke-linecap="round" stroke-linejoin="round"/>
<path d="M9.996 13.1632H10.0043" stroke="#121212" stroke-width="1.5" stroke-linecap="round" stroke-linejoin="round"/>
</svg>
