<svg width="24" height="24" viewBox="0 0 24 24" fill="none" xmlns="http://www.w3.org/2000/svg">
<path d="M19.0238 11.3601C19.1777 11.2713 19.1777 11.0491 19.0238 10.9602L6.69623 3.84289C6.54229 3.75402 6.34987 3.86511 6.34987 4.04286L6.34987 18.2775C6.34987 18.4552 6.54229 18.5663 6.69622 18.4774L19.0238 11.3601Z" fill="#FFFDFD" stroke="white" stroke-width="1.86003" stroke-linecap="round"/>
<rect width="0.847722" height="9.34577" rx="0.423861" transform="matrix(0.00962757 -0.999954 -0.999954 -0.00962757 17.3455 11.9377)" fill="#6462F1"/>
<path d="M8.68986 12.4891C9.50468 12.0186 9.50467 10.8426 8.68986 10.3721L7.18754 9.50476C6.37273 9.03433 5.35421 9.62237 5.35421 10.5632L5.35421 12.298C5.35421 13.2388 6.37273 13.8269 7.18755 13.3564L8.68986 12.4891Z" fill="#6462F1" stroke="#6462F1" stroke-width="0.738426" stroke-linecap="round"/>
</svg>
