<svg width="18" height="18" viewBox="0 0 18 18" fill="none" xmlns="http://www.w3.org/2000/svg">
<path fill-rule="evenodd" clip-rule="evenodd" d="M9.35375 12.8564C9.30011 13.2958 9.28433 13.7281 9.16442 14.1754C8.97351 14.8129 8.47415 15.2028 7.93534 15.187C7.67975 15.1933 7.32002 15.0377 7.07783 14.8341L4.25284 12.5396H2.67902C1.92012 12.5396 1.40892 12.0224 1.30558 11.1703C1.15806 10.1217 1.17226 8.22734 1.30558 7.15752C1.40892 6.41863 1.92012 5.83617 2.67902 5.83617H4.25284L7.01945 3.58098C7.26164 3.37582 7.67975 3.18245 7.93534 3.18796C8.47415 3.17224 8.97351 3.5629 9.16442 4.19961C9.27092 4.60678 9.30011 5.07998 9.35375 5.51939C9.48234 6.54676 9.48234 11.829 9.35375 12.8564Z" stroke="#121212" stroke-width="1.5" stroke-linecap="round" stroke-linejoin="round"/>
<path d="M12.333 5.29541C13.014 6.27491 13.4228 7.58891 13.4228 9.05141C13.4228 10.5139 13.014 11.8272 12.333 12.8067" stroke="#121212" stroke-width="1.5" stroke-linecap="round" stroke-linejoin="round"/>
<path d="M14.9062 3C16.0035 4.578 16.662 6.6945 16.662 9.051C16.662 11.4075 16.0035 13.5247 14.9062 15.1027" stroke="#121212" stroke-width="1.5" stroke-linecap="round" stroke-linejoin="round"/>
</svg>
