<svg width="21" height="21" viewBox="0 0 21 21" fill="none" xmlns="http://www.w3.org/2000/svg">
<path fill-rule="evenodd" clip-rule="evenodd" d="M11.6535 2.09754L13.9181 6.653C14.0315 6.88278 14.2505 7.04314 14.5047 7.08029L19.5745 7.81265C19.7798 7.84003 19.9646 7.94758 20.0908 8.11185C20.3274 8.41985 20.2912 8.85594 20.0077 9.12092L16.3332 12.6742C16.1464 12.8502 16.0633 13.1083 16.1122 13.3596L16.9922 18.3736C17.0538 18.7892 16.7702 19.1783 16.3547 19.2458C16.1826 19.2722 16.0066 19.2448 15.8502 19.1676L11.3348 16.8004C11.1079 16.6772 10.8361 16.6772 10.6093 16.8004L6.06064 19.1803C5.68029 19.3739 5.21486 19.2302 5.00757 18.8576C4.92837 18.7071 4.901 18.5359 4.92837 18.3687L5.80837 13.3547C5.85238 13.1044 5.76926 12.8472 5.5874 12.6702L1.89335 9.11798C1.5922 8.81878 1.59024 8.33185 1.89042 8.03069C1.8914 8.02972 1.89237 8.02776 1.89335 8.02678C2.01753 7.91434 2.17006 7.83905 2.33531 7.80972L7.40606 7.07736C7.65931 7.03727 7.87735 6.87887 7.99273 6.64909L10.2553 2.09754C10.3462 1.91274 10.5076 1.77096 10.7031 1.70643C10.8997 1.64092 11.1148 1.65656 11.2996 1.74945C11.4511 1.82474 11.5753 1.94696 11.6535 2.09754Z" fill="white" stroke="#121212" stroke-width="1.5" stroke-linecap="round" stroke-linejoin="round"/>
</svg>
