<svg width="52" height="52" viewBox="0 0 52 52" fill="none" xmlns="http://www.w3.org/2000/svg">
<rect x="0.304321" width="51.3043" height="51.3043" rx="15.3913" fill="#5A5371" fill-opacity="0.5"/>
<path fill-rule="evenodd" clip-rule="evenodd" d="M26.5106 31.5704C26.4332 32.2051 26.4104 32.8296 26.2372 33.4756C25.9614 34.3965 25.2401 34.9596 24.4618 34.9369C24.0926 34.946 23.573 34.7212 23.2232 34.4271L19.1427 31.1129H16.8694C15.7732 31.1129 15.0348 30.3658 14.8855 29.135C14.6724 27.6203 14.6929 24.884 14.8855 23.3387C15.0348 22.2714 15.7732 21.4301 16.8694 21.4301H19.1427L23.1389 18.1726C23.4887 17.8763 24.0926 17.597 24.4618 17.6049C25.2401 17.5822 25.9614 18.1465 26.2372 19.0662C26.391 19.6543 26.4332 20.3378 26.5106 20.9725C26.6964 22.4565 26.6964 30.0865 26.5106 31.5704Z" stroke="white" stroke-width="1.5" stroke-linecap="round" stroke-linejoin="round"/>
<path d="M30.8136 20.6489C31.7973 22.0638 32.3877 23.9618 32.3877 26.0743C32.3877 28.1868 31.7973 30.0837 30.8136 31.4985" stroke="white" stroke-width="1.5" stroke-linecap="round" stroke-linejoin="round"/>
<path d="M34.5306 17.3334C36.1156 19.6127 37.0667 22.6699 37.0667 26.0737C37.0667 29.4775 36.1156 32.5358 34.5306 34.8151" stroke="white" stroke-width="1.5" stroke-linecap="round" stroke-linejoin="round"/>
</svg>
